<!--?xml version="1.0" standalone="no"?-->              <svg id="sw-js-blob-svg" viewBox="0 0 100 100" xmlns="http://www.w3.org/2000/svg">                    <defs>                         <linearGradient id="sw-gradient" x1="0" x2="1" y1="1" y2="0">                            <stop id="stop1" stop-color="rgba(255, 255, 255, 1)" offset="0%"></stop>                            <stop id="stop2" stop-color="rgba(251.264, 253.482, 252.448, 1)" offset="100%"></stop>                        </linearGradient>                    </defs>                <path fill="url(#sw-gradient)" d="M20.3,-28.2C27.7,-26.7,36.3,-23.6,39.5,-17.7C42.8,-11.8,40.8,-3.1,37.8,4.2C34.8,11.4,30.7,17.3,25.7,21.3C20.7,25.3,14.7,27.4,8.3,29.9C2,32.5,-4.6,35.5,-11.9,35.6C-19.2,35.7,-27.1,33,-32,27.6C-36.8,22.2,-38.7,14,-40.4,5.5C-42,-3,-43.5,-11.8,-40.2,-18.1C-36.9,-24.4,-28.8,-28.3,-21.3,-29.8C-13.8,-31.3,-6.9,-30.4,-0.2,-30C6.4,-29.6,12.8,-29.7,20.3,-28.2Z" width="100%" height="100%" transform="translate(50 50)" style="transition: all 0.3s ease 0s;" stroke-width="0" stroke="url(#sw-gradient)"></path>              </svg>
